<?xml version="1.0" encoding="utf-8"?>
<!-- Generator: Adobe Illustrator 19.1.0, SVG Export Plug-In . SVG Version: 6.00 Build 0)  -->
<svg version="1.1" id="Layer_1" xmlns="http://www.w3.org/2000/svg" xmlns:xlink="http://www.w3.org/1999/xlink" x="0px" y="0px"
	 viewBox="0 0 44 44" enable-background="new 0 0 44 44" xml:space="preserve">
<g>
	<g>
		<path fill-rule="evenodd" clip-rule="evenodd" fill="#545763" d="M22,0C9.9,0,0,9.9,0,22c0,12.2,9.9,22,22,22c12.2,0,22-9.9,22-22
			C44,9.9,34.2,0,22,0z M22,40c-10,0-18-8.1-18-18c0-10,8.1-18,18-18c10,0,18,8.1,18,18C40,31.9,31.9,40,22,40z M27.2,19.2l-7.3-7.3
			l-2.8,2.8l7.3,7.3l-7.2,7.2L20,32l7.2-7.2l0,0L30,22L27.2,19.2L27.2,19.2z"/>
	</g>
</g>
</svg>
